<svg version="1" xmlns="http://www.w3.org/2000/svg" width="666.667" height="666.667" viewBox="0 0 500.000000 500.000000"><path d="M221 1.6c-84.1 10-157.3 61.7-194.9 137.5C8.6 174.2-.3 213.2.1 251.9c.2 19.6 1.3 29.7 4.9 48.3C20.1 375.7 69.6 440 139.1 474.5c22.5 11.1 44 18.1 71.4 23.1 13.8 2.5 56.4 3.1 72 1 57.5-8 108.1-33.4 147.5-74.2 37.9-39.2 61-87 68.6-141.9 2.3-16.7 1.5-59.1-1.4-74.5-4.9-26-11.7-46.7-22.7-68.9-30-60.5-82-105.6-146.3-126.7-14.3-4.8-37.2-9.7-51.7-11.2C263.1-.2 234 0 221 1.6zm5.5 180.4c11 14.6 35.6 47 54.5 72l34.5 45.5.3-12c.1-6.6.1-34.5 0-62-.3-56.4 0-54.2-8.1-58.9-5-3-13.9-5.2-21.4-5.5-1.9-.1-2.3-.7-2.3-3.1v-3h68v2.9c0 2.5-.5 3-3.2 3.6-14.3 2.7-20.3 5.8-23.4 12.1-1.8 3.7-1.9 7.3-2.2 88.1l-.3 84.3H320c-3.2 0 3.5 8.6-97.9-126-18.9-25-35-46.2-35.8-47-1.2-1.3-1.4 8.3-1.1 72 .3 81.7 0 77.9 7.1 83.3 4.8 3.7 10.5 5.6 18.9 6.4 6.9.6 6.9.6 6.6 3.5l-.3 2.9h-69l-.3-2.9c-.3-2.7-.2-2.8 7.2-4 9-1.6 16.8-5.3 19.8-9.5l2.3-3.2.3-68.5c.3-71.3-.1-79.5-3.8-85.6-2.8-4.5-7.9-6.1-20.7-6.3-2.8-.1-3.3-.5-3.3-2.4 0-1.3.3-2.7.7-3 .4-.4 13-.6 28.2-.5l27.5.3 20.1 26.5z"/></svg>