<svg xmlns="http://www.w3.org/2000/svg" data-name="Layer 1" viewBox="0 0 100 125" x="0px" y="0px"><title>138all</title><path d="M90.13,84.61A10.45,10.45,0,1,0,79.68,95.06,10.47,10.47,0,0,0,90.13,84.61Zm-14.91,0a4.45,4.45,0,1,1,4.45,4.45A4.46,4.46,0,0,1,75.22,84.61Z"/><path d="M94.34,19.43h-68l-2-8.35a8,8,0,0,0-7.78-6.14H5.66a3,3,0,0,0,0,6H16.54a2,2,0,0,1,1.94,1.53l10,41.89a9.63,9.63,0,0,0,7.25,16h53.7a3,3,0,0,0,0-6H35.77a3.65,3.65,0,1,1,0-7.3h44.5A11,11,0,0,0,91,48.69l6.3-25.55a3,3,0,0,0-2.91-3.72ZM85.13,47.26a5,5,0,0,1-4.85,3.8H33.9L27.76,25.43H90.51Z"/><path d="M35.86,95.06A10.45,10.45,0,1,0,25.41,84.61,10.47,10.47,0,0,0,35.86,95.06Zm0-14.91a4.45,4.45,0,1,1-4.45,4.46A4.46,4.46,0,0,1,35.86,80.15Z"/></svg>
