<svg version="1.1" id="Layer_1" xmlns="http://www.w3.org/2000/svg" xmlns:xlink="http://www.w3.org/1999/xlink" x="0px" y="0px"
	 viewBox="481.306 180.383 613.317 239.559"
	 enable-background="new 481.306 180.383 613.317 239.559" xml:space="preserve">
<path fill="#010202" d="M510.108,205.169v99.829c0,7.881,0.439,13.694,1.319,17.441c0.879,3.749,2.505,6.847,4.877,9.294
	c2.142,2.22,4.57,3.826,7.286,4.82c2.715,0.994,6.254,1.604,10.614,1.836v2.639h-52.898v-2.639c4.36-0.23,7.898-0.842,10.614-1.836
	c2.715-0.994,5.144-2.602,7.287-4.82c2.37-2.447,3.997-5.563,4.876-9.352c0.879-3.786,1.32-9.581,1.32-17.385v-84.683
	c0-7.727-0.441-13.482-1.32-17.271c-0.88-3.785-2.506-6.901-4.876-9.352c-2.065-2.218-4.457-3.824-7.171-4.819
	c-2.716-0.993-6.293-1.605-10.729-1.836v-2.64h44.178l93.174,118.877v-82.846c0-7.88-0.441-13.693-1.319-17.441
	c-0.88-3.748-2.507-6.846-4.877-9.295c-2.143-2.218-4.572-3.824-7.286-4.819c-2.716-0.993-6.254-1.605-10.614-1.836v-2.64h52.898
	v2.64c-7.65,0-13.617,2.22-17.9,6.655c-2.372,2.449-3.998,5.564-4.876,9.352c-0.88,3.787-1.319,9.544-1.319,17.271v120.713H618.2
	L510.108,205.169z"/>
<path fill="#010202" d="M664.212,263.747c0-12.858,2.754-24.782,8.262-35.767c5.509-10.985,13.54-20.574,24.098-28.767
	c7.878-6.046,16.368-10.695,25.474-13.95c9.104-3.252,18.282-4.881,27.539-4.881c11.779,0,23.179,2.584,34.194,7.751
	c11.015,5.168,20.653,12.46,28.915,21.875c13.464,15.311,20.195,32.726,20.195,52.245c0,9.801-1.761,19.254-5.277,28.362
	c-3.521,9.109-8.646,17.416-15.377,24.918c-8.262,9.339-18.034,16.573-29.316,21.701c-11.285,5.128-23.084,7.693-35.399,7.693
	c-12.163,0-23.792-2.488-34.883-7.464c-11.093-4.977-20.653-12.019-28.687-21.128c-6.352-7.117-11.228-15.214-14.631-24.284
	C665.913,282.982,664.212,273.547,664.212,263.747z M691.981,265.47c0,22.2,6.041,40.92,18.129,56.151
	c5.432,6.812,11.188,11.771,17.271,14.87c6.081,3.103,13.099,4.651,21.056,4.651c8.032,0,15.09-1.531,21.172-4.594
	c6.08-3.062,11.875-8.038,17.384-14.929c12.086-15.31,18.13-34.18,18.13-56.61c0-12.324-1.664-23.98-4.991-34.966
	c-3.328-10.984-8.015-20.307-14.057-27.963c-4.896-6.273-10.348-10.849-16.353-13.721c-6.006-2.87-13.101-4.307-21.285-4.307
	c-8.108,0-15.128,1.416-21.056,4.249c-5.929,2.833-11.417,7.425-16.466,13.777c-6.044,7.581-10.711,16.883-13.999,27.905
	C693.624,241.011,691.981,252.839,691.981,265.47z"/>
<path fill="#010202" d="M839.888,184.4h72.175v2.64c-6.73,0-11.32,0.498-13.771,1.491c-2.064,0.918-3.748,2.41-5.048,4.476
	c-1.303,2.065-1.95,4.399-1.95,6.999c0,3.214,1.223,7.65,3.672,13.312l2.982,7.115l35.686,87.207l24.9-75.159
	c3.213-9.64,4.819-16.828,4.819-21.572c0-3.518-0.631-6.942-1.895-10.27c-1.262-3.328-2.926-6.024-4.99-8.091
	c-1.99-1.987-4.266-3.402-6.828-4.244c-2.563-0.843-5.834-1.264-9.811-1.264v-2.64h73.781v2.64c-4.515,0-7.785,0.154-9.812,0.459
	c-2.026,0.308-3.92,0.957-5.68,1.95c-2.295,1.377-4.15,3.348-5.564,5.91c-1.418,2.562-2.123,5.336-2.123,8.317
	c0,2.755,1.07,7.536,3.214,14.345l28.227,90.994l31.555-77.454c4.896-11.856,7.344-21.036,7.344-27.539
	c0-6.809-2.256-11.627-6.77-14.458c-2.754-1.683-6.924-2.524-12.508-2.524v-2.64h53.129v2.64c-5.127,0.536-9.008,1.512-11.646,2.926
	c-2.641,1.417-5.262,3.998-7.86,7.745c-3.826,5.355-8.605,15.032-14.345,29.031l-47.159,114.287h-4.705l-40.851-122.205
	l-41.422,122.205h-5.164L870.18,217.562l-3.442-8.377c-2.371-5.66-4.359-9.753-5.968-12.277c-1.604-2.524-3.557-4.513-5.852-5.967
	c-1.836-1.224-3.826-2.104-5.967-2.64c-2.144-0.534-5.164-0.955-9.064-1.263L839.888,184.4L839.888,184.4z"/>
<path fill="#010202" d="M518.595,405.901v-0.078c0-7.371,5.343-14.119,13.495-14.119c4.446,0,7.254,1.326,9.984,3.59l-1.326,1.52
	c-2.146-1.872-4.641-3.275-8.775-3.275c-6.63,0-11.271,5.616-11.271,12.207v0.078c0,7.061,4.407,12.324,11.701,12.324
	c3.471,0,6.708-1.443,8.696-3.12v-7.839h-9.126v-1.872h11.076v10.53c-2.457,2.184-6.279,4.095-10.725,4.095
	C523.704,419.941,518.595,413.584,518.595,405.901z"/>
<path fill="#010202" d="M615.354,392.173h19.424v1.872h-17.396v10.726h15.64v1.872h-15.64v10.959h17.59v1.872h-19.618V392.173z"/>
<path fill="#010202" d="M706.458,392.173h1.911l18.838,23.752v-23.752h1.95v27.301h-1.521l-19.228-24.259v24.259h-1.95V392.173
	L706.458,392.173z"/>
<path fill="#010202" d="M802.242,392.173h19.423v1.872h-17.396v10.726h15.642v1.872h-15.642v10.959h17.591v1.872h-19.617V392.173z"
	/>
<path fill="#010202" d="M891.006,392.173h2.262l10.688,25.116l10.725-25.116h2.146l-12.013,27.496h-1.795L891.006,392.173z"/>
<path fill="#010202" d="M1001.324,391.977h1.949l12.715,27.496h-2.224l-3.471-7.646h-16.107l-3.472,7.646h-2.105L1001.324,391.977z
	 M1009.436,409.995l-7.177-15.796l-7.215,15.796H1009.436z"/>
</svg>
